<?xml version="1.0" standalone="no"?>
<!DOCTYPE svg PUBLIC "-//W3C//DTD SVG 20010904//EN"
 "http://www.w3.org/TR/2001/REC-SVG-20010904/DTD/svg10.dtd">
<svg version="1.0" xmlns="http://www.w3.org/2000/svg"
 width="413.000000pt" height="344.000000pt" viewBox="0 0 413.000000 344.000000"
 preserveAspectRatio="xMidYMid meet">
<metadata>
Created by potrace 1.16, written by Peter Selinger 2001-2019
</metadata>
<g transform="translate(0.000000,344.000000) scale(0.100000,-0.100000)"
fill="currentColor" stroke="none">
<path d="M1612 3414 c-65 -28 -95 -136 -55 -194 13 -19 164 -224 225 -305 4
-5 20 -26 36 -45 15 -19 38 -49 49 -65 l21 -31 -49 -64 c-27 -36 -52 -69 -57
-75 -7 -10 -73 -102 -172 -240 -25 -35 -121 -168 -215 -296 -93 -128 -191
-262 -217 -298 -167 -233 -461 -634 -468 -641 -5 -4 -77 -102 -147 -200 -49
-68 -245 -337 -256 -350 -28 -35 -74 -97 -94 -128 -13 -18 -28 -38 -33 -45 -6
-7 -45 -59 -87 -117 -68 -92 -77 -110 -80 -155 -5 -61 19 -111 66 -137 30 -17
88 -18 1054 -15 701 2 1033 6 1058 13 134 41 279 163 337 285 94 198 79 320
-66 522 -33 45 -75 106 -96 134 -20 29 -52 75 -71 103 l-35 50 0 116 c0 115 0
117 30 151 21 24 30 44 30 69 0 41 -22 89 -45 98 -9 3 -108 6 -220 6 -194 0
-205 -1 -223 -21 -37 -39 -38 -122 -1 -155 17 -15 19 -32 19 -147 l0 -129 -77
-112 c-167 -241 -202 -299 -217 -350 -29 -100 -16 -209 38 -318 14 -28 24 -53
22 -55 -1 -2 -276 -2 -610 -1 l-608 3 63 85 c34 47 87 119 118 161 31 42 83
113 116 159 50 70 162 222 235 320 10 14 48 66 84 115 36 50 69 95 73 100 5 6
19 26 33 45 21 31 182 248 203 275 15 20 213 291 237 325 13 19 28 40 33 45 4
6 35 48 69 95 34 47 119 162 188 255 69 94 143 195 165 225 21 30 40 57 42 59
3 5 31 -29 104 -133 69 -95 73 -101 165 -225 134 -183 365 -496 382 -520 9
-14 35 -50 58 -80 84 -115 249 -338 299 -406 136 -185 494 -667 598 -807 36
-47 63 -89 59 -92 -3 -3 -204 -6 -448 -6 l-442 0 -31 -26 c-41 -35 -57 -89
-41 -140 32 -98 0 -94 680 -94 l586 0 33 24 c18 13 39 33 46 43 26 34 16 152
-15 173 -4 3 -16 19 -26 35 -11 17 -71 100 -135 185 -63 85 -155 209 -204 275
-48 66 -100 136 -114 155 -14 19 -37 51 -50 70 -13 19 -26 37 -30 40 -3 3 -22
28 -40 55 -19 28 -38 52 -41 55 -3 3 -17 21 -30 40 -14 19 -30 42 -37 50 -7 8
-41 54 -75 102 -35 47 -103 141 -153 208 -49 67 -94 129 -100 139 -5 9 -12 18
-15 21 -6 5 -175 234 -204 275 -8 11 -82 112 -166 225 -155 211 -245 334 -293
402 -15 22 -32 45 -38 51 -5 7 -30 40 -55 75 -52 73 -56 57 45 192 31 41 63
84 71 97 8 12 51 71 94 130 70 95 80 114 83 158 5 62 -21 108 -73 130 -91 38
-130 12 -264 -171 -110 -151 -110 -150 -152 -202 l-27 -32 -112 147 c-200 263
-183 244 -222 261 -36 15 -73 14 -115 -4z m508 -2209 l5 -150 36 -50 c19 -27
57 -81 83 -118 82 -119 120 -172 133 -185 32 -33 9 -42 -105 -42 -87 0 -158
16 -247 55 -47 21 -98 33 -178 43 l-58 7 44 60 c24 33 71 101 105 150 l62 91
0 140 c0 77 2 143 5 146 3 3 29 5 58 4 l52 -1 5 -150z"/>
<path d="M2042 887 c-28 -30 -28 -71 0 -97 31 -28 72 -26 97 6 53 67 -39 153
-97 91z"/>
</g>
</svg>

